# This file uses centimeters as units for non-parametric coordinates.

mtllib godzillaLeftArm.mtl
g default
v -2.227324 3.766711 -0.872541
v -2.290610 3.747945 -0.874239
v -2.275495 3.788809 -0.900814
v -2.205214 3.805804 -0.885317
v -2.356430 3.750120 -0.854767
v -2.358405 3.780839 -0.872355
v -2.343365 3.821425 -0.869492
v -2.273009 3.838698 -0.883433
v -2.212156 3.843633 -0.876653
v -2.094971 3.925439 0.188674
v -1.974646 3.909799 0.041579
v -1.865247 3.984160 -0.131004
v -1.864038 4.110405 -0.219839
v -1.934087 4.217231 -0.191571
v -2.014713 4.239806 -0.051882
v -2.084412 4.172380 0.113297
v -2.125321 4.039200 0.209536
v -2.155128 3.802756 0.033770
v -2.040596 3.858017 -0.054369
v -2.198382 3.659078 -0.188839
v -2.096375 3.782581 -0.236305
v -2.092277 3.956967 -0.239559
v -1.985452 3.983496 -0.142289
v -2.052548 4.095690 -0.180565
v -2.218540 4.049441 -0.226070
v -2.378762 4.038477 -0.203828
v -2.172848 4.147367 -0.153524
v -2.259561 4.112072 -0.065321
v -2.465049 3.941894 -0.168225
v -2.452849 3.810637 -0.125113
v -2.286814 4.008586 0.029127
v -2.247552 3.876020 0.066047
v -2.342422 3.688002 -0.137084
v -2.234315 3.548257 -0.426268
v -2.151459 3.688835 -0.535579
v -2.259569 3.456817 -0.598988
v -2.205482 3.508422 -0.657737
v -2.237329 3.546412 -0.731719
v -2.189325 3.639270 -0.731052
v -2.207097 3.728388 -0.779456
v -2.156968 3.789613 -0.717045
v -2.185884 3.880610 -0.689641
v -2.160680 3.903608 -0.464712
v -2.294579 3.975799 -0.430872
v -2.303003 3.911636 -0.671306
v -2.431320 3.875870 -0.655016
v -2.450017 3.934396 -0.415626
v -2.529947 3.788198 -0.436307
v -2.487286 3.803781 -0.651758
v -2.457497 3.745098 -0.715306
v -2.506149 3.717469 -0.636086
v -2.469352 3.648277 -0.649556
v -2.505506 3.652827 -0.543574
v -2.474335 3.579611 -0.506048
v -2.500059 3.669583 -0.336476
v -2.377528 3.563176 -0.355645
v -2.372090 3.490350 -0.536958
v -2.303508 3.554872 -0.955339
v -2.362663 3.562392 -0.950237
v -2.356527 3.598469 -1.010016
v -2.286882 3.591515 -0.993525
v -2.418231 3.596093 -0.910150
v -2.424067 3.625553 -0.940450
v -2.408900 3.659583 -0.938678
v -2.348286 3.654676 -0.983739
v -2.289253 3.642774 -0.981770
v -2.283534 3.412759 -0.753290
v -2.333998 3.444386 -0.727757
v -2.321892 3.478493 -0.765515
v -2.266248 3.437491 -0.781646
v -2.387989 3.497649 -0.690045
v -2.389542 3.533779 -0.710143
v -2.379313 3.560504 -0.723790
v -2.321792 3.526883 -0.764033
v -2.272186 3.485241 -0.779057
v -2.214205 3.761520 -0.826088
v -2.170432 3.814567 -0.827977
v -2.195412 3.865437 -0.823885
v -2.286980 3.873087 -0.819799
v -2.386143 3.842169 -0.808276
v -2.428645 3.790968 -0.793353
v -2.402334 3.749670 -0.790426
v -2.310741 3.738864 -0.811026
v -2.330123 3.733599 -0.784985
v -2.274758 3.553034 -0.860033
v -2.233594 3.608175 -0.886126
v -2.254336 3.677216 -0.894563
v -2.341217 3.702533 -0.878107
v -2.433895 3.696220 -0.837076
v -2.471048 3.666692 -0.804359
v -2.444537 3.620038 -0.797540
v -2.362131 3.567603 -0.828211
v -2.352960 3.581365 -0.722176
v -2.272349 3.409249 -0.707713
v -2.234514 3.439332 -0.742218
v -2.256368 3.502763 -0.749789
v -2.335415 3.564163 -0.725568
v -2.419289 3.600499 -0.678198
v -2.452326 3.584172 -0.635013
v -2.428940 3.524381 -0.622228
v -2.353094 3.448873 -0.657737
v -1.889234 3.922203 0.079743
v -2.010302 3.967126 0.262849
v -1.747769 3.971997 -0.137221
v -1.714262 4.101537 -0.250365
v -1.763555 4.230552 -0.223680
v -1.846360 4.277462 -0.056342
v -1.933252 4.227200 0.149165
v -2.009024 4.095880 0.277867
vt -0.335447 0.542441
vt -0.324567 0.533986
vt -0.322713 0.548692
vt -0.332135 0.557128
vt -0.313688 0.525532
vt -0.313290 0.540255
vt -0.312892 0.554978
vt -0.320858 0.563397
vt -0.328824 0.571816
vt -0.125633 0.541881
vt -0.218307 0.541881
vt -0.234883 0.541881
vt -0.136844 0.541881
vt -0.310981 0.541881
vt -0.332922 0.541881
vt -0.310210 0.584216
vt -0.331063 0.579182
vt -0.309439 0.626552
vt -0.329204 0.616483
vt -0.249332 0.626552
vt -0.267857 0.616483
vt -0.189225 0.626552
vt -0.206510 0.616483
vt -0.157429 0.584216
vt -0.171677 0.579182
vt -0.202371 0.498930
vt -0.239122 0.527360
vt -0.279110 0.455980
vt -0.259936 0.512838
vt -0.240763 0.569697
vt -0.275872 0.555789
vt -0.261093 0.571598
vt -0.211975 0.558979
vt -0.183188 0.548261
vt -0.246313 0.587407
vt -0.219180 0.569676
vt -0.189027 0.512800
vt -0.194866 0.477340
vt -0.192046 0.551946
vt -0.197208 0.525438
vt -0.236988 0.466660
vt -0.301585 0.455980
vt -0.301018 0.512830
vt -0.324060 0.455980
vt -0.323323 0.472855
vt -0.322586 0.489730
vt -0.321567 0.512812
vt -0.320548 0.535895
vt -0.319795 0.552796
vt -0.319041 0.569697
vt -0.279902 0.569697
vt -0.255787 0.558838
vt -0.299599 0.558697
vt -0.280157 0.547696
vt -0.231672 0.547979
vt -0.245460 0.512032
vt -0.277737 0.533981
vt -0.275316 0.520266
vt -0.273641 0.511060
vt -0.271966 0.501854
vt -0.269615 0.489315
vt -0.267265 0.476775
vt -0.231066 0.477057
vt -0.266325 0.466518
vt -0.295662 0.466377
vt -0.345748 0.494380
vt -0.332054 0.500208
vt -0.332274 0.516353
vt -0.344935 0.517462
vt -0.318360 0.506037
vt -0.319613 0.515243
vt -0.320865 0.524448
vt -0.332493 0.532497
vt -0.344122 0.540545
vt -0.336569 0.455980
vt -0.319083 0.466143
vt -0.319765 0.480851
vt -0.335906 0.472855
vt -0.301598 0.476307
vt -0.303624 0.488847
vt -0.305650 0.501387
vt -0.320446 0.495558
vt -0.335242 0.489730
vt -0.327998 0.539168
vt -0.325965 0.554962
vt -0.323932 0.570756
vt -0.310229 0.561047
vt -0.296525 0.551337
vt -0.295513 0.537118
vt -0.294502 0.522899
vt -0.311250 0.531033
vt -0.297932 0.528080
vt -0.334167 0.492055
vt -0.333251 0.515137
vt -0.332335 0.538220
vt -0.315213 0.530289
vt -0.298091 0.522357
vt -0.296627 0.513151
vt -0.295163 0.503946
vt -0.314665 0.498000
vt -0.297276 0.495792
vt -0.330314 0.455980
vt -0.329614 0.472855
vt -0.328914 0.489730
vt -0.308861 0.495675
vt -0.288808 0.501621
vt -0.286620 0.489081
vt -0.284431 0.476541
vt -0.307373 0.466260
vn 0.424310 -0.791318 -0.440201
vn 0.035764 -0.878187 -0.476978
vn -0.047493 -0.107904 -0.993026
vn 0.615842 -0.124273 -0.778007
vn -0.376441 -0.800936 -0.465611
vn -0.580847 -0.040994 -0.812980
vn -0.047493 -0.107904 -0.993026
vn 0.035764 -0.878187 -0.476978
vn -0.436835 0.576310 -0.690683
vn -0.131756 0.690546 -0.711187
vn -0.047493 -0.107904 -0.993026
vn -0.580847 -0.040994 -0.812980
vn 0.314048 0.685347 -0.657018
vn 0.615842 -0.124273 -0.778007
vn -0.047493 -0.107904 -0.993026
vn -0.131756 0.690546 -0.711187
vn -0.121959 -0.755482 0.643718
vn 0.303762 -0.950612 0.063760
vn -0.253006 -0.953507 -0.163744
vn -0.521615 -0.665075 0.534409
vn 0.036823 -0.793146 -0.607917
vn -0.297328 -0.736891 -0.607114
vn -0.253006 -0.953507 -0.163744
vn 0.303762 -0.950612 0.063760
vn 0.036823 -0.793146 -0.607917
vn -0.162388 -0.226226 -0.960444
vn -0.319060 -0.303522 -0.897817
vn -0.297328 -0.736891 -0.607114
vn -0.262366 0.698057 -0.666243
vn -0.376581 0.523807 -0.764076
vn -0.319060 -0.303522 -0.897817
vn -0.162388 -0.226226 -0.960444
vn -0.262366 0.698057 -0.666243
vn -0.377427 0.925824 0.019954
vn -0.329776 0.939388 -0.093796
vn -0.376581 0.523807 -0.764076
vn -0.546963 0.730497 0.408909
vn -0.383820 0.854011 0.351208
vn -0.329776 0.939388 -0.093796
vn -0.377427 0.925824 0.019954
vn -0.546963 0.730497 0.408909
vn -0.657390 0.209841 0.723744
vn -0.527885 0.489907 0.693779
vn -0.383820 0.854011 0.351208
vn -0.121959 -0.755482 0.643718
vn -0.521615 -0.665075 0.534409
vn -0.527885 0.489907 0.693779
vn -0.657390 0.209841 0.723744
vn -0.121959 -0.755482 0.643718
vn 0.207035 -0.818430 0.536012
vn 0.694023 -0.719877 0.010412
vn 0.303762 -0.950612 0.063760
vn 0.471154 -0.809804 0.349616
vn 0.925920 -0.371236 -0.069683
vn 0.694023 -0.719877 0.010412
vn 0.207035 -0.818430 0.536012
vn 0.818618 0.258090 -0.513084
vn 0.481783 -0.479730 -0.733311
vn 0.694023 -0.719877 0.010412
vn 0.925920 -0.371236 -0.069683
vn 0.036823 -0.793146 -0.607917
vn 0.303762 -0.950612 0.063760
vn 0.694023 -0.719877 0.010412
vn 0.481783 -0.479730 -0.733311
vn 0.036823 -0.793146 -0.607917
vn 0.481783 -0.479730 -0.733311
vn 0.009741 0.102217 -0.994714
vn -0.162388 -0.226226 -0.960444
vn 0.818618 0.258090 -0.513084
vn 0.129407 0.796830 -0.590183
vn 0.009741 0.102217 -0.994714
vn 0.481783 -0.479730 -0.733311
vn -0.514045 0.840863 -0.169434
vn -0.342175 0.823292 -0.452887
vn 0.009741 0.102217 -0.994714
vn 0.129407 0.796830 -0.590183
vn -0.262366 0.698057 -0.666243
vn -0.162388 -0.226226 -0.960444
vn 0.009741 0.102217 -0.994714
vn -0.342175 0.823292 -0.452887
vn -0.262366 0.698057 -0.666243
vn -0.342175 0.823292 -0.452887
vn -0.620184 0.743617 0.249811
vn -0.377427 0.925824 0.019954
vn -0.514045 0.840863 -0.169434
vn -0.886903 0.383686 0.257271
vn -0.620184 0.743617 0.249811
vn -0.342175 0.823292 -0.452887
vn -0.813989 -0.174581 0.554025
vn -0.732065 0.316316 0.603345
vn -0.620184 0.743617 0.249811
vn -0.886903 0.383686 0.257271
vn -0.546963 0.730497 0.408909
vn -0.377427 0.925824 0.019954
vn -0.620184 0.743617 0.249811
vn -0.732065 0.316316 0.603345
vn -0.546963 0.730497 0.408909
vn -0.732065 0.316316 0.603345
vn -0.545092 -0.338607 0.766955
vn -0.657390 0.209841 0.723744
vn -0.813989 -0.174581 0.554025
vn -0.351556 -0.698875 0.622882
vn -0.545092 -0.338607 0.766955
vn -0.732065 0.316316 0.603345
vn 0.471154 -0.809804 0.349616
vn 0.207035 -0.818430 0.536012
vn -0.545092 -0.338607 0.766955
vn -0.351556 -0.698875 0.622882
vn -0.121959 -0.755482 0.643718
vn -0.657390 0.209841 0.723744
vn -0.545092 -0.338607 0.766955
vn 0.207035 -0.818430 0.536012
vn 0.471154 -0.809804 0.349616
vn 0.576107 -0.768648 0.277994
vn 0.970512 -0.236664 -0.045794
vn 0.925920 -0.371236 -0.069683
vn 0.518495 -0.790239 0.326626
vn 0.917680 -0.396893 0.018426
vn 0.970512 -0.236664 -0.045794
vn 0.576107 -0.768648 0.277994
vn 0.805746 -0.513969 -0.294295
vn 0.942132 -0.219966 -0.252988
vn 0.970512 -0.236664 -0.045794
vn 0.917680 -0.396893 0.018426
vn 0.916147 -0.032420 -0.399530
vn 0.990889 0.034206 -0.130263
vn 0.970512 -0.236664 -0.045794
vn 0.942132 -0.219966 -0.252988
vn 0.744607 0.652061 -0.142747
vn 0.829656 0.487894 -0.271349
vn 0.970512 -0.236664 -0.045794
vn 0.990889 0.034206 -0.130263
vn 0.818618 0.258090 -0.513084
vn 0.925920 -0.371236 -0.069683
vn 0.970512 -0.236664 -0.045794
vn 0.829656 0.487894 -0.271349
vn 0.818618 0.258090 -0.513084
vn 0.829656 0.487894 -0.271349
vn 0.049698 0.947450 -0.316019
vn 0.129407 0.796830 -0.590183
vn 0.744607 0.652061 -0.142747
vn -0.021329 0.971100 -0.237720
vn 0.049698 0.947450 -0.316019
vn 0.829656 0.487894 -0.271349
vn -0.552868 0.794596 -0.250908
vn -0.599338 0.776315 -0.195265
vn 0.049698 0.947450 -0.316019
vn -0.021329 0.971100 -0.237720
vn -0.514045 0.840863 -0.169434
vn 0.129407 0.796830 -0.590183
vn 0.049698 0.947450 -0.316019
vn -0.599338 0.776315 -0.195265
vn -0.514045 0.840863 -0.169434
vn -0.599338 0.776315 -0.195265
vn -0.980255 0.196881 0.018383
vn -0.886903 0.383686 0.257271
vn -0.552868 0.794596 -0.250908
vn -0.879760 0.409101 -0.242195
vn -0.980255 0.196881 0.018383
vn -0.599338 0.776315 -0.195265
vn -0.838100 0.355493 -0.413780
vn -0.978028 -0.043495 -0.203888
vn -0.980255 0.196881 0.018383
vn -0.879760 0.409101 -0.242195
vn -0.869971 -0.476077 -0.128456
vn -0.959442 -0.274901 -0.062459
vn -0.980255 0.196881 0.018383
vn -0.978028 -0.043495 -0.203888
vn -0.782817 -0.602465 0.155670
vn -0.838445 -0.420596 0.346568
vn -0.980255 0.196881 0.018383
vn -0.959442 -0.274901 -0.062459
vn -0.813989 -0.174581 0.554025
vn -0.886903 0.383686 0.257271
vn -0.980255 0.196881 0.018383
vn -0.838445 -0.420596 0.346568
vn -0.813989 -0.174581 0.554025
vn -0.838445 -0.420596 0.346568
vn -0.276512 -0.849432 0.449452
vn -0.351556 -0.698875 0.622882
vn -0.782817 -0.602465 0.155670
vn -0.290067 -0.893763 0.342125
vn -0.276512 -0.849432 0.449452
vn -0.838445 -0.420596 0.346568
vn 0.518495 -0.790239 0.326626
vn 0.576107 -0.768648 0.277994
vn -0.276512 -0.849432 0.449452
vn -0.290067 -0.893763 0.342125
vn 0.471154 -0.809804 0.349616
vn -0.351556 -0.698875 0.622882
vn -0.276512 -0.849432 0.449452
vn 0.576107 -0.768648 0.277994
vn 0.262091 -0.935089 -0.238574
vn -0.367558 -0.910922 -0.187408
vn -0.334875 -0.256630 -0.906642
vn 0.655967 -0.310934 -0.687770
vn -0.686916 -0.719818 -0.100039
vn -0.863361 -0.078282 -0.498477
vn -0.334875 -0.256630 -0.906642
vn -0.367558 -0.910922 -0.187408
vn -0.476747 0.728919 -0.491314
vn -0.089713 0.768655 -0.633342
vn -0.334875 -0.256630 -0.906642
vn -0.863361 -0.078282 -0.498477
vn 0.527952 0.589183 -0.611662
vn 0.655967 -0.310934 -0.687770
vn -0.334875 -0.256630 -0.906642
vn -0.089713 0.768655 -0.633342
vn -0.274400 -0.875112 -0.398602
vn -0.668249 -0.662563 -0.338310
vn -0.580389 -0.233724 -0.780078
vn 0.154337 -0.420865 -0.893897
vn -0.788511 -0.501493 -0.356027
vn -0.776078 -0.224943 -0.589155
vn -0.580389 -0.233724 -0.780078
vn -0.668249 -0.662563 -0.338310
vn -0.514605 0.297223 -0.804264
vn -0.136938 0.430007 -0.892380
vn -0.580389 -0.233724 -0.780078
vn -0.776078 -0.224943 -0.589155
vn 0.320955 0.324519 -0.889761
vn 0.154337 -0.420865 -0.893897
vn -0.580389 -0.233724 -0.780078
vn -0.136938 0.430007 -0.892380
vn 0.916147 -0.032420 -0.399530
vn 0.569320 -0.757421 -0.319669
vn 0.970190 0.019374 -0.241569
vn 0.990889 0.034206 -0.130263
vn 0.424310 -0.791318 -0.440201
vn 0.615842 -0.124273 -0.778007
vn 0.970190 0.019374 -0.241569
vn 0.569320 -0.757421 -0.319669
vn 0.314048 0.685347 -0.657018
vn 0.501450 0.833400 -0.232364
vn 0.970190 0.019374 -0.241569
vn 0.615842 -0.124273 -0.778007
vn 0.744607 0.652061 -0.142747
vn 0.990889 0.034206 -0.130263
vn 0.970190 0.019374 -0.241569
vn 0.501450 0.833400 -0.232364
vn 0.744607 0.652061 -0.142747
vn 0.501450 0.833400 -0.232364
vn -0.100354 0.949076 -0.298638
vn -0.021329 0.971100 -0.237720
vn 0.314048 0.685347 -0.657018
vn -0.131756 0.690546 -0.711187
vn -0.100354 0.949076 -0.298638
vn 0.501450 0.833400 -0.232364
vn -0.436835 0.576310 -0.690683
vn -0.495317 0.777554 -0.387390
vn -0.100354 0.949076 -0.298638
vn -0.131756 0.690546 -0.711187
vn -0.552868 0.794596 -0.250908
vn -0.021329 0.971100 -0.237720
vn -0.100354 0.949076 -0.298638
vn -0.495317 0.777554 -0.387390
vn -0.552868 0.794596 -0.250908
vn -0.495317 0.777554 -0.387390
vn -0.843482 0.266042 -0.466648
vn -0.879760 0.409101 -0.242195
vn -0.436835 0.576310 -0.690683
vn -0.580847 -0.040994 -0.812980
vn -0.843482 0.266042 -0.466648
vn -0.495317 0.777554 -0.387390
vn -0.376441 -0.800936 -0.465611
vn -0.579351 -0.703030 -0.412434
vn -0.843482 0.266042 -0.466648
vn -0.580847 -0.040994 -0.812980
vn -0.838100 0.355493 -0.413780
vn -0.879760 0.409101 -0.242195
vn -0.843482 0.266042 -0.466648
vn -0.579351 -0.703030 -0.412434
vn -0.838100 0.355493 -0.413780
vn -0.579351 -0.703030 -0.412434
vn 0.002575 -0.962419 -0.271557
vn -0.095141 0.784867 -0.612317
vn -0.376441 -0.800936 -0.465611
vn 0.035764 -0.878187 -0.476978
vn 0.002575 -0.962419 -0.271557
vn -0.579351 -0.703030 -0.412434
vn 0.424310 -0.791318 -0.440201
vn 0.569320 -0.757421 -0.319669
vn 0.002575 -0.962419 -0.271557
vn 0.035764 -0.878187 -0.476978
vn 0.916147 -0.032420 -0.399530
vn -0.095141 0.784867 -0.612317
vn 0.002575 -0.962419 -0.271557
vn 0.569320 -0.757421 -0.319669
vn 0.805746 -0.513969 -0.294295
vn 0.362807 -0.927537 -0.089702
vn 0.918208 -0.236761 -0.317552
vn 0.942132 -0.219966 -0.252988
vn 0.262091 -0.935089 -0.238574
vn 0.655967 -0.310934 -0.687770
vn 0.918208 -0.236761 -0.317552
vn 0.362807 -0.927537 -0.089702
vn 0.527952 0.589183 -0.611662
vn 0.629617 0.620718 -0.467216
vn 0.918208 -0.236761 -0.317552
vn 0.655967 -0.310934 -0.687770
vn 0.916147 -0.032420 -0.399530
vn 0.942132 -0.219966 -0.252988
vn 0.918208 -0.236761 -0.317552
vn 0.629617 0.620718 -0.467216
vn 0.916147 -0.032420 -0.399530
vn 0.629617 0.620718 -0.467216
vn -0.026772 0.920260 -0.390391
vn -0.095141 0.784867 -0.612317
vn 0.527952 0.589183 -0.611662
vn -0.089713 0.768655 -0.633342
vn -0.026772 0.920260 -0.390391
vn 0.629617 0.620718 -0.467216
vn -0.476747 0.728919 -0.491314
vn -0.439118 0.809390 -0.389954
vn -0.026772 0.920260 -0.390391
vn -0.089713 0.768655 -0.633342
vn -0.838100 0.355493 -0.413780
vn -0.095141 0.784867 -0.612317
vn -0.026772 0.920260 -0.390391
vn -0.439118 0.809390 -0.389954
vn -0.838100 0.355493 -0.413780
vn -0.439118 0.809390 -0.389954
vn -0.970890 -0.004076 -0.239490
vn -0.978028 -0.043495 -0.203888
vn -0.476747 0.728919 -0.491314
vn -0.863361 -0.078282 -0.498477
vn -0.970890 -0.004076 -0.239490
vn -0.439118 0.809390 -0.389954
vn -0.686916 -0.719818 -0.100039
vn -0.668615 -0.743110 0.027224
vn -0.970890 -0.004076 -0.239490
vn -0.863361 -0.078282 -0.498477
vn -0.869971 -0.476077 -0.128456
vn -0.978028 -0.043495 -0.203888
vn -0.970890 -0.004076 -0.239490
vn -0.668615 -0.743110 0.027224
vn -0.869971 -0.476077 -0.128456
vn -0.668615 -0.743110 0.027224
vn -0.348908 -0.934214 0.074214
vn -0.420042 -0.907371 -0.015574
vn -0.686916 -0.719818 -0.100039
vn -0.367558 -0.910922 -0.187408
vn -0.348908 -0.934214 0.074214
vn -0.668615 -0.743110 0.027224
vn 0.262091 -0.935089 -0.238574
vn 0.362807 -0.927537 -0.089702
vn -0.348908 -0.934214 0.074214
vn -0.367558 -0.910922 -0.187408
vn 0.805746 -0.513969 -0.294295
vn -0.420042 -0.907371 -0.015574
vn -0.348908 -0.934214 0.074214
vn 0.362807 -0.927537 -0.089702
vn 0.518495 -0.790239 0.326626
vn 0.251881 -0.943651 0.214659
vn 0.881336 -0.453800 -0.131577
vn 0.917680 -0.396893 0.018426
vn -0.274400 -0.875112 -0.398602
vn 0.154337 -0.420865 -0.893897
vn 0.881336 -0.453800 -0.131577
vn 0.251881 -0.943651 0.214659
vn 0.320955 0.324519 -0.889761
vn 0.693528 0.287637 -0.660518
vn 0.881336 -0.453800 -0.131577
vn 0.154337 -0.420865 -0.893897
vn 0.805746 -0.513969 -0.294295
vn 0.917680 -0.396893 0.018426
vn 0.881336 -0.453800 -0.131577
vn 0.693528 0.287637 -0.660518
vn 0.805746 -0.513969 -0.294295
vn 0.693528 0.287637 -0.660518
vn -0.012058 0.501244 -0.865222
vn -0.420042 -0.907371 -0.015574
vn 0.320955 0.324519 -0.889761
vn -0.136938 0.430007 -0.892380
vn -0.012058 0.501244 -0.865222
vn 0.693528 0.287637 -0.660518
vn -0.514605 0.297223 -0.804264
vn -0.749984 -0.146322 -0.645069
vn -0.012058 0.501244 -0.865222
vn -0.136938 0.430007 -0.892380
vn -0.869971 -0.476077 -0.128456
vn -0.420042 -0.907371 -0.015574
vn -0.012058 0.501244 -0.865222
vn -0.749984 -0.146322 -0.645069
vn -0.869971 -0.476077 -0.128456
vn -0.749984 -0.146322 -0.645069
vn -0.876588 -0.367204 -0.311053
vn -0.959442 -0.274901 -0.062459
vn -0.514605 0.297223 -0.804264
vn -0.776078 -0.224943 -0.589155
vn -0.876588 -0.367204 -0.311053
vn -0.749984 -0.146322 -0.645069
vn -0.788511 -0.501493 -0.356027
vn -0.768856 -0.637913 -0.043913
vn -0.876588 -0.367204 -0.311053
vn -0.776078 -0.224943 -0.589155
vn -0.782817 -0.602465 0.155670
vn -0.959442 -0.274901 -0.062459
vn -0.876588 -0.367204 -0.311053
vn -0.768856 -0.637913 -0.043913
vn -0.782817 -0.602465 0.155670
vn -0.768856 -0.637913 -0.043913
vn -0.425772 -0.885619 0.185466
vn -0.290067 -0.893763 0.342125
vn -0.788511 -0.501493 -0.356027
vn -0.668249 -0.662563 -0.338310
vn -0.425772 -0.885619 0.185466
vn -0.768856 -0.637913 -0.043913
vn -0.274400 -0.875112 -0.398602
vn 0.251881 -0.943651 0.214659
vn -0.425772 -0.885619 0.185466
vn -0.668249 -0.662563 -0.338310
vn 0.518495 -0.790239 0.326626
vn -0.290067 -0.893763 0.342125
vn -0.425772 -0.885619 0.185466
vn 0.251881 -0.943651 0.214659
s off
g polySurface83 polySurface82 polySurface80 polySurface78
usemtl lambert27SG
f 1/1/1 2/2/2 3/3/3 4/4/4
f 5/5/5 6/6/6 3/3/7 2/2/8
f 7/7/9 8/8/10 3/3/11 6/6/12
f 9/9/13 4/4/14 3/3/15 8/8/16
f 10/10/17 11/11/18 102/12/19 103/13/20
f 12/14/21 104/15/22 102/12/23 11/11/24
f 12/14/25 13/16/26 105/17/27 104/15/28
f 14/18/29 106/19/30 105/17/31 13/16/32
f 14/18/33 15/20/34 107/21/35 106/19/36
f 16/22/37 108/23/38 107/21/39 15/20/40
f 16/22/41 17/24/42 109/25/43 108/23/44
f 10/10/45 103/13/46 109/25/47 17/24/48
f 10/10/49 18/26/50 19/27/51 11/11/52
f 20/28/53 21/29/54 19/27/55 18/26/56
f 22/30/57 23/31/58 19/27/59 21/29/60
f 12/14/61 11/11/62 19/27/63 23/31/64
f 12/14/65 23/31/66 24/32/67 13/16/68
f 22/30/69 25/33/70 24/32/71 23/31/72
f 26/34/73 27/35/74 24/32/75 25/33/76
f 14/18/77 13/16/78 24/32/79 27/35/80
f 14/18/81 27/35/82 28/36/83 15/20/84
f 26/34/85 29/37/86 28/36/87 27/35/88
f 30/38/89 31/39/90 28/36/91 29/37/92
f 16/22/93 15/20/94 28/36/95 31/39/96
f 16/22/97 31/39/98 32/40/99 17/24/100
f 30/38/101 33/41/102 32/40/103 31/39/104
f 20/28/105 18/26/106 32/40/107 33/41/108
f 10/10/109 17/24/110 32/40/111 18/26/112
f 20/28/113 34/42/114 35/43/115 21/29/116
f 36/44/117 37/45/118 35/43/119 34/42/120
f 38/46/121 39/47/122 35/43/123 37/45/124
f 40/48/125 41/49/126 35/43/127 39/47/128
f 42/50/129 43/51/130 35/43/131 41/49/132
f 22/30/133 21/29/134 35/43/135 43/51/136
f 22/30/137 43/51/138 44/52/139 25/33/140
f 42/50/141 45/53/142 44/52/143 43/51/144
f 46/54/145 47/55/146 44/52/147 45/53/148
f 26/34/149 25/33/150 44/52/151 47/55/152
f 26/34/153 47/55/154 48/56/155 29/37/156
f 46/54/157 49/57/158 48/56/159 47/55/160
f 50/58/161 51/59/162 48/56/163 49/57/164
f 52/60/165 53/61/166 48/56/167 51/59/168
f 54/62/169 55/63/170 48/56/171 53/61/172
f 30/38/173 29/37/174 48/56/175 55/63/176
f 30/38/177 55/63/178 56/64/179 33/41/180
f 54/62/181 57/65/182 56/64/183 55/63/184
f 36/44/185 34/42/186 56/64/187 57/65/188
f 20/28/189 33/41/190 56/64/191 34/42/192
f 58/66/193 59/67/194 60/68/195 61/69/196
f 62/70/197 63/71/198 60/68/199 59/67/200
f 64/72/201 65/73/202 60/68/203 63/71/204
f 66/74/205 61/69/206 60/68/207 65/73/208
f 67/75/209 68/76/210 69/77/211 70/78/212
f 71/79/213 72/80/214 69/77/215 68/76/216
f 73/81/217 74/82/218 69/77/219 72/80/220
f 75/83/221 70/78/222 69/77/223 74/82/224
f 40/48/225 76/84/226 77/85/227 41/49/228
f 1/1/229 4/4/230 77/85/231 76/84/232
f 9/9/233 78/86/234 77/85/235 4/4/236
f 42/50/237 41/49/238 77/85/239 78/86/240
f 42/50/241 78/86/242 79/87/243 45/53/244
f 9/9/245 8/8/246 79/87/247 78/86/248
f 7/7/249 80/88/250 79/87/251 8/8/252
f 46/54/253 45/53/254 79/87/255 80/88/256
f 46/54/257 80/88/258 81/89/259 49/57/260
f 7/7/261 6/6/262 81/89/263 80/88/264
f 5/5/265 82/90/266 81/89/267 6/6/268
f 50/58/269 49/57/270 81/89/271 82/90/272
f 50/58/273 82/90/274 83/91/275 84/92/276
f 5/5/277 2/2/278 83/91/279 82/90/280
f 1/1/281 76/84/282 83/91/283 2/2/284
f 40/48/285 84/92/286 83/91/287 76/84/288
f 38/46/289 85/93/290 86/94/291 39/47/292
f 58/66/293 61/69/294 86/94/295 85/93/296
f 66/74/297 87/95/298 86/94/299 61/69/300
f 40/48/301 39/47/302 86/94/303 87/95/304
f 40/48/305 87/95/306 88/96/307 84/92/308
f 66/74/309 65/73/310 88/96/311 87/95/312
f 64/72/313 89/97/314 88/96/315 65/73/316
f 50/58/317 84/92/318 88/96/319 89/97/320
f 50/58/321 89/97/322 90/98/323 51/59/324
f 64/72/325 63/71/326 90/98/327 89/97/328
f 62/70/329 91/99/330 90/98/331 63/71/332
f 52/60/333 51/59/334 90/98/335 91/99/336
f 52/60/337 91/99/338 92/100/339 93/101/340
f 62/70/341 59/67/342 92/100/343 91/99/344
f 58/66/345 85/93/346 92/100/347 59/67/348
f 38/46/349 93/101/350 92/100/351 85/93/352
f 36/44/353 94/102/354 95/103/355 37/45/356
f 67/75/357 70/78/358 95/103/359 94/102/360
f 75/83/361 96/104/362 95/103/363 70/78/364
f 38/46/365 37/45/366 95/103/367 96/104/368
f 38/46/369 96/104/370 97/105/371 93/101/372
f 75/83/373 74/82/374 97/105/375 96/104/376
f 73/81/377 98/106/378 97/105/379 74/82/380
f 52/60/381 93/101/382 97/105/383 98/106/384
f 52/60/385 98/106/386 99/107/387 53/61/388
f 73/81/389 72/80/390 99/107/391 98/106/392
f 71/79/393 100/108/394 99/107/395 72/80/396
f 54/62/397 53/61/398 99/107/399 100/108/400
f 54/62/401 100/108/402 101/109/403 57/65/404
f 71/79/405 68/76/406 101/109/407 100/108/408
f 67/75/409 94/102/410 101/109/411 68/76/412
f 36/44/413 57/65/414 101/109/415 94/102/416
