# This file uses centimeters as units for non-parametric coordinates.

mtllib godzillaRightArm.mtl
g default
v 2.976821 3.159703 -0.996725
v 2.962140 3.204004 -0.995226
v 3.024535 3.180151 -1.026947
v 3.033850 3.131548 -1.014476
v 2.978088 3.236157 -0.978911
v 3.035068 3.222904 -0.997646
v 3.101286 3.190599 -1.001427
v 3.106779 3.150448 -1.016896
v 3.100560 3.116869 -1.007371
v 2.676457 3.214864 -0.145316
v 2.778019 3.144932 0.020200
v 2.891672 3.159339 0.157247
v 2.746432 3.433825 -0.215707
v 2.678165 3.333641 -0.236206
v 2.886192 3.390188 0.075803
v 2.822358 3.454177 -0.084186
v 2.922211 3.265467 0.172220
v 2.860050 3.089952 -0.119238
v 2.955148 3.030298 -0.061010
v 2.828412 3.202241 -0.185883
v 2.950376 3.186828 -0.316392
v 2.915333 3.033801 -0.349049
v 2.988632 2.898599 -0.349965
v 2.904283 3.292253 -0.230118
v 3.019093 3.324499 -0.226176
v 3.241594 3.203501 -0.326461
v 3.091405 3.243728 -0.311517
v 3.091653 3.282787 -0.162348
v 3.101955 3.188570 -0.083437
v 3.267556 2.975413 -0.313250
v 3.303943 3.097841 -0.330652
v 3.048381 3.080591 -0.046135
v 3.135556 2.888760 -0.325516
v 2.928890 3.006470 -0.680412
v 2.991324 2.831285 -0.624907
v 2.992111 3.187275 -0.561843
v 2.984776 3.223687 -0.786999
v 2.933734 3.150271 -0.830269
v 2.961070 3.101112 -0.913891
v 2.931029 3.006500 -0.886561
v 2.957518 2.910663 -0.918824
v 2.928116 2.859692 -0.851978
v 2.977024 2.785295 -0.818615
v 3.141249 3.222436 -0.537149
v 3.284155 3.152807 -0.561642
v 3.225861 3.167355 -0.799831
v 3.107187 3.227764 -0.783188
v 3.328696 3.007405 -0.631497
v 3.285204 2.874666 -0.559711
v 3.223293 2.838579 -0.738909
v 3.264307 2.912835 -0.762242
v 3.214615 2.944191 -0.857676
v 3.266811 2.999512 -0.834480
v 3.215378 3.055999 -0.894231
v 3.265017 3.088687 -0.824683
v 3.141633 2.801374 -0.580760
v 3.101175 2.780397 -0.771756
v 2.994467 2.969374 -1.141635
v 2.981282 3.017473 -1.165925
v 3.048065 3.016640 -1.192570
v 3.054010 2.964886 -1.145678
v 2.996084 3.062246 -1.142525
v 3.055533 3.063883 -1.152196
v 3.121099 3.045575 -1.119114
v 3.128261 3.011295 -1.131950
v 3.120218 2.976041 -1.109311
v 2.970818 2.782383 -0.980718
v 2.955713 2.816608 -0.998469
v 3.020460 2.841305 -0.983118
v 3.029757 2.796500 -0.957788
v 2.972030 2.859997 -0.985308
v 3.030925 2.886645 -0.969756
v 3.099027 2.897345 -0.933615
v 3.104969 2.866537 -0.929075
v 3.098323 2.827075 -0.918571
v 2.937763 3.202347 -0.932159
v 2.969018 3.144153 -0.951401
v 2.973378 3.244991 -0.920260
v 3.064198 3.235328 -0.931132
v 3.155069 3.185842 -0.945817
v 3.187176 3.125992 -0.951966
v 3.153232 3.090676 -0.954582
v 3.080580 3.086401 -0.940236
v 3.059573 3.101945 -0.960203
v 2.947159 3.012562 -1.049894
v 2.978571 2.946116 -1.046139
v 2.980944 3.076587 -1.044670
v 3.072613 3.080994 -1.038558
v 3.166296 3.047683 -1.017908
v 3.200172 3.004296 -1.000801
v 3.165390 2.962870 -1.000996
v 3.078193 2.921149 -0.922143
v 3.070402 2.936013 -1.028140
v 2.930487 2.812860 -0.954714
v 2.965134 2.768333 -0.936166
v 2.964258 2.871152 -0.950250
v 3.057082 2.908852 -0.926424
v 3.152201 2.915604 -0.887622
v 3.186275 2.882494 -0.856546
v 3.152474 2.826459 -0.854868
v 3.058267 2.778008 -0.893501
v 2.684363 3.160374 0.077070
v 2.543877 3.209615 -0.139010
v 2.804596 3.205143 0.258920
v 2.510735 3.338222 -0.252411
v 2.559805 3.466407 -0.226697
v 2.642023 3.513038 -0.060380
v 2.728182 3.463206 0.144478
v 2.803343 3.332944 0.273203
vt 1.335511 0.542441
vt 1.332199 0.557128
vt 1.322776 0.548692
vt 1.324631 0.533986
vt 1.328887 0.571816
vt 1.320922 0.563397
vt 1.312956 0.554978
vt 1.313354 0.540255
vt 1.313751 0.525532
vt 1.311045 0.541881
vt 1.218371 0.541881
vt 1.234946 0.541881
vt 1.332986 0.541881
vt 1.125696 0.541881
vt 1.136907 0.541881
vt 1.309503 0.626552
vt 1.310274 0.584216
vt 1.331127 0.579182
vt 1.329268 0.616483
vt 1.189289 0.626552
vt 1.249396 0.626552
vt 1.267920 0.616483
vt 1.206573 0.616483
vt 1.157493 0.584216
vt 1.171740 0.579182
vt 1.239185 0.527360
vt 1.202435 0.498930
vt 1.275936 0.555789
vt 1.240826 0.569697
vt 1.260000 0.512838
vt 1.279173 0.455980
vt 1.261156 0.571598
vt 1.246377 0.587407
vt 1.183251 0.548261
vt 1.212039 0.558979
vt 1.219243 0.569676
vt 1.192109 0.551946
vt 1.194930 0.477340
vt 1.189091 0.512800
vt 1.197272 0.525438
vt 1.237051 0.466660
vt 1.301082 0.512830
vt 1.301648 0.455980
vt 1.279966 0.569697
vt 1.319105 0.569697
vt 1.319858 0.552796
vt 1.320612 0.535895
vt 1.321631 0.512812
vt 1.322649 0.489730
vt 1.323386 0.472855
vt 1.324124 0.455980
vt 1.255851 0.558838
vt 1.231736 0.547979
vt 1.280220 0.547696
vt 1.299663 0.558697
vt 1.245523 0.512032
vt 1.231129 0.477057
vt 1.267329 0.476775
vt 1.269679 0.489315
vt 1.272029 0.501854
vt 1.273705 0.511060
vt 1.275380 0.520266
vt 1.277800 0.533981
vt 1.266389 0.466518
vt 1.295726 0.466377
vt 1.345811 0.494380
vt 1.344998 0.517462
vt 1.332337 0.516353
vt 1.332118 0.500208
vt 1.344185 0.540545
vt 1.332557 0.532497
vt 1.320928 0.524448
vt 1.319676 0.515243
vt 1.318424 0.506037
vt 1.336632 0.455980
vt 1.335969 0.472855
vt 1.319828 0.480851
vt 1.319147 0.466143
vt 1.335306 0.489730
vt 1.320510 0.495558
vt 1.305713 0.501387
vt 1.303687 0.488847
vt 1.301661 0.476307
vt 1.326029 0.554962
vt 1.328061 0.539168
vt 1.323996 0.570756
vt 1.310292 0.561047
vt 1.296588 0.551337
vt 1.295577 0.537118
vt 1.294566 0.522899
vt 1.297996 0.528080
vt 1.311314 0.531033
vt 1.333315 0.515137
vt 1.334230 0.492055
vt 1.332399 0.538220
vt 1.315277 0.530289
vt 1.298154 0.522357
vt 1.296690 0.513151
vt 1.295227 0.503946
vt 1.297339 0.495792
vt 1.314728 0.498000
vt 1.329678 0.472855
vt 1.330378 0.455980
vt 1.328978 0.489730
vt 1.308924 0.495675
vt 1.288871 0.501621
vt 1.286683 0.489081
vt 1.284495 0.476541
vt 1.307437 0.466260
vn -0.637343 -0.552617 -0.537037
vn -0.723537 0.204597 -0.659268
vn -0.105636 0.165635 -0.980513
vn -0.284543 -0.691368 -0.664113
vn -0.242194 0.884248 -0.399308
vn 0.183523 0.827489 -0.530643
vn -0.105636 0.165635 -0.980513
vn -0.723537 0.204597 -0.659268
vn 0.457059 0.661328 -0.594763
vn 0.448371 0.087091 -0.889595
vn -0.105636 0.165635 -0.980513
vn 0.183523 0.827489 -0.530643
vn 0.132565 -0.692449 -0.709184
vn -0.284543 -0.691368 -0.664113
vn -0.105636 0.165635 -0.980513
vn 0.448371 0.087091 -0.889595
vn -0.171953 -0.804936 -0.567900
vn -0.304369 -0.951797 0.037966
vn 0.219599 -0.965446 -0.140323
vn 0.242027 -0.766339 -0.595103
vn 0.217337 -0.799332 0.560208
vn 0.563789 -0.652520 0.506320
vn 0.219599 -0.965446 -0.140323
vn -0.304369 -0.951797 0.037966
vn 0.236875 0.713979 -0.658881
vn 0.007763 -0.229958 -0.973170
vn 0.267218 -0.306555 -0.913575
vn 0.348660 0.552571 -0.757035
vn -0.171953 -0.804936 -0.567900
vn 0.242027 -0.766339 -0.595103
vn 0.267218 -0.306555 -0.913575
vn 0.007763 -0.229958 -0.973170
vn 0.656773 0.670741 0.344611
vn 0.463678 0.886004 -0.000041
vn 0.368418 0.923716 -0.104964
vn 0.449215 0.836162 0.314705
vn 0.236875 0.713979 -0.658881
vn 0.348660 0.552571 -0.757035
vn 0.368418 0.923716 -0.104964
vn 0.463678 0.886004 -0.000041
vn 0.217337 -0.799332 0.560208
vn 0.769574 0.164476 0.617012
vn 0.596207 0.484433 0.640204
vn 0.563789 -0.652520 0.506320
vn 0.656773 0.670741 0.344611
vn 0.449215 0.836162 0.314705
vn 0.596207 0.484433 0.640204
vn 0.769574 0.164476 0.617012
vn 0.217337 -0.799332 0.560208
vn -0.304369 -0.951797 0.037966
vn -0.723794 -0.687730 -0.056128
vn -0.190452 -0.877423 0.440291
vn -0.171953 -0.804936 -0.567900
vn -0.582325 -0.409740 -0.702147
vn -0.723794 -0.687730 -0.056128
vn -0.304369 -0.951797 0.037966
vn -0.786225 0.501676 -0.360793
vn -0.980687 -0.186760 -0.058080
vn -0.723794 -0.687730 -0.056128
vn -0.582325 -0.409740 -0.702147
vn -0.548694 -0.796726 0.253303
vn -0.190452 -0.877423 0.440291
vn -0.723794 -0.687730 -0.056128
vn -0.980687 -0.186760 -0.058080
vn -0.171953 -0.804936 -0.567900
vn 0.007763 -0.229958 -0.973170
vn -0.154740 0.161583 -0.974652
vn -0.582325 -0.409740 -0.702147
vn 0.236875 0.713979 -0.658881
vn 0.365605 0.849771 -0.379767
vn -0.154740 0.161583 -0.974652
vn 0.007763 -0.229958 -0.973170
vn 0.627531 0.777658 0.038111
vn -0.068365 0.936929 -0.342770
vn -0.154740 0.161583 -0.974652
vn 0.365605 0.849771 -0.379767
vn -0.786225 0.501676 -0.360793
vn -0.582325 -0.409740 -0.702147
vn -0.154740 0.161583 -0.974652
vn -0.068365 0.936929 -0.342770
vn 0.236875 0.713979 -0.658881
vn 0.463678 0.886004 -0.000041
vn 0.712721 0.635738 0.296422
vn 0.365605 0.849771 -0.379767
vn 0.656773 0.670741 0.344611
vn 0.804962 0.169914 0.568477
vn 0.712721 0.635738 0.296422
vn 0.463678 0.886004 -0.000041
vn 0.780403 -0.405845 0.475669
vn 0.942161 0.163410 0.292625
vn 0.712721 0.635738 0.296422
vn 0.804962 0.169914 0.568477
vn 0.627531 0.777658 0.038111
vn 0.365605 0.849771 -0.379767
vn 0.712721 0.635738 0.296422
vn 0.942161 0.163410 0.292625
vn 0.656773 0.670741 0.344611
vn 0.769574 0.164476 0.617012
vn 0.586774 -0.460696 0.665924
vn 0.804962 0.169914 0.568477
vn 0.217337 -0.799332 0.560208
vn -0.190452 -0.877423 0.440291
vn 0.586774 -0.460696 0.665924
vn 0.769574 0.164476 0.617012
vn -0.548694 -0.796726 0.253303
vn 0.266146 -0.837322 0.477555
vn 0.586774 -0.460696 0.665924
vn -0.190452 -0.877423 0.440291
vn 0.780403 -0.405845 0.475669
vn 0.804962 0.169914 0.568477
vn 0.586774 -0.460696 0.665924
vn 0.266146 -0.837322 0.477555
vn -0.548694 -0.796726 0.253303
vn -0.980687 -0.186760 -0.058080
vn -0.998161 -0.042704 0.043027
vn -0.670132 -0.719878 0.180829
vn -0.786225 0.501676 -0.360793
vn -0.714043 0.699762 -0.021806
vn -0.998161 -0.042704 0.043027
vn -0.980687 -0.186760 -0.058080
vn -0.596725 0.787261 0.155371
vn -0.968782 0.241061 0.057885
vn -0.998161 -0.042704 0.043027
vn -0.714043 0.699762 -0.021806
vn -0.944985 0.238537 -0.223839
vn -0.991578 0.024685 -0.127139
vn -0.998161 -0.042704 0.043027
vn -0.968782 0.241061 0.057885
vn -0.927819 -0.265176 -0.262361
vn -0.971700 -0.222345 0.079765
vn -0.998161 -0.042704 0.043027
vn -0.991578 0.024685 -0.127139
vn -0.625580 -0.751786 0.208489
vn -0.670132 -0.719878 0.180829
vn -0.998161 -0.042704 0.043027
vn -0.971700 -0.222345 0.079765
vn -0.786225 0.501676 -0.360793
vn -0.068365 0.936929 -0.342770
vn 0.120237 0.991740 -0.044656
vn -0.714043 0.699762 -0.021806
vn 0.627531 0.777658 0.038111
vn 0.730887 0.680177 -0.056244
vn 0.120237 0.991740 -0.044656
vn -0.068365 0.936929 -0.342770
vn 0.674361 0.725523 -0.137306
vn 0.199506 0.979830 0.011410
vn 0.120237 0.991740 -0.044656
vn 0.730887 0.680177 -0.056244
vn -0.596725 0.787261 0.155371
vn -0.714043 0.699762 -0.021806
vn 0.120237 0.991740 -0.044656
vn 0.199506 0.979830 0.011410
vn 0.627531 0.777658 0.038111
vn 0.942161 0.163410 0.292625
vn 0.998655 0.004801 -0.051631
vn 0.730887 0.680177 -0.056244
vn 0.780403 -0.405845 0.475669
vn 0.751162 -0.637848 0.170017
vn 0.998655 0.004801 -0.051631
vn 0.942161 0.163410 0.292625
vn 0.647393 -0.752298 -0.122186
vn 0.865743 -0.408579 -0.289053
vn 0.998655 0.004801 -0.051631
vn 0.751162 -0.637848 0.170017
vn 0.724965 -0.563222 -0.396493
vn 0.913401 -0.151466 -0.377832
vn 0.998655 0.004801 -0.051631
vn 0.865743 -0.408579 -0.289053
vn 0.834710 0.306830 -0.457291
vn 0.909951 0.303205 -0.282943
vn 0.998655 0.004801 -0.051631
vn 0.913401 -0.151466 -0.377832
vn 0.674361 0.725523 -0.137306
vn 0.730887 0.680177 -0.056244
vn 0.998655 0.004801 -0.051631
vn 0.909951 0.303205 -0.282943
vn 0.780403 -0.405845 0.475669
vn 0.266146 -0.837322 0.477555
vn 0.139216 -0.963292 0.229536
vn 0.751162 -0.637848 0.170017
vn -0.548694 -0.796726 0.253303
vn -0.670132 -0.719878 0.180829
vn 0.139216 -0.963292 0.229536
vn 0.266146 -0.837322 0.477555
vn -0.625580 -0.751786 0.208489
vn 0.131151 -0.989232 0.064950
vn 0.139216 -0.963292 0.229536
vn -0.670132 -0.719878 0.180829
vn 0.647393 -0.752298 -0.122186
vn 0.751162 -0.637848 0.170017
vn 0.139216 -0.963292 0.229536
vn 0.131151 -0.989232 0.064950
vn -0.485007 -0.772414 -0.410055
vn -0.790710 0.010022 -0.612109
vn 0.151899 -0.048375 -0.987211
vn 0.136389 -0.872136 -0.469869
vn -0.464025 0.817576 -0.340955
vn 0.169632 0.886929 -0.429630
vn 0.151899 -0.048375 -0.987211
vn -0.790710 0.010022 -0.612109
vn 0.554202 0.743326 -0.374602
vn 0.754592 -0.084115 -0.650781
vn 0.151899 -0.048375 -0.987211
vn 0.169632 0.886929 -0.429630
vn 0.497838 -0.770742 -0.397636
vn 0.136389 -0.872136 -0.469869
vn 0.151899 -0.048375 -0.987211
vn 0.754592 -0.084115 -0.650781
vn 0.026544 -0.763606 -0.645137
vn -0.355281 -0.122953 -0.926638
vn 0.410882 -0.104133 -0.905722
vn 0.461204 -0.647242 -0.606934
vn -0.356319 0.609046 -0.708590
vn 0.109262 0.630673 -0.768319
vn 0.410882 -0.104133 -0.905722
vn -0.355281 -0.122953 -0.926638
vn 0.457848 0.415710 -0.785850
vn 0.626922 -0.182536 -0.757396
vn 0.410882 -0.104133 -0.905722
vn 0.109262 0.630673 -0.768319
vn 0.609861 -0.510789 -0.605941
vn 0.461204 -0.647242 -0.606934
vn 0.410882 -0.104133 -0.905722
vn 0.626922 -0.182536 -0.757396
vn -0.944985 0.238537 -0.223839
vn -0.968782 0.241061 0.057885
vn -0.966405 0.252353 -0.048780
vn -0.754874 -0.529101 -0.387578
vn -0.596725 0.787261 0.155371
vn -0.336954 0.938488 0.075511
vn -0.966405 0.252353 -0.048780
vn -0.968782 0.241061 0.057885
vn -0.242194 0.884248 -0.399308
vn -0.723537 0.204597 -0.659268
vn -0.966405 0.252353 -0.048780
vn -0.336954 0.938488 0.075511
vn -0.637343 -0.552617 -0.537037
vn -0.754874 -0.529101 -0.387578
vn -0.966405 0.252353 -0.048780
vn -0.723537 0.204597 -0.659268
vn -0.596725 0.787261 0.155371
vn 0.199506 0.979830 0.011410
vn 0.261906 0.962662 -0.068465
vn -0.336954 0.938488 0.075511
vn 0.674361 0.725523 -0.137306
vn 0.596052 0.757232 -0.267060
vn 0.261906 0.962662 -0.068465
vn 0.199506 0.979830 0.011410
vn 0.457059 0.661328 -0.594763
vn 0.183523 0.827489 -0.530643
vn 0.261906 0.962662 -0.068465
vn 0.596052 0.757232 -0.267060
vn -0.242194 0.884248 -0.399308
vn -0.336954 0.938488 0.075511
vn 0.261906 0.962662 -0.068465
vn 0.183523 0.827489 -0.530643
vn 0.674361 0.725523 -0.137306
vn 0.909951 0.303205 -0.282943
vn 0.813255 0.235892 -0.531951
vn 0.596052 0.757232 -0.267060
vn 0.834710 0.306830 -0.457291
vn 0.356880 -0.649594 -0.671315
vn 0.813255 0.235892 -0.531951
vn 0.909951 0.303205 -0.282943
vn 0.132565 -0.692449 -0.709184
vn 0.448371 0.087091 -0.889595
vn 0.813255 0.235892 -0.531951
vn 0.356880 -0.649594 -0.671315
vn 0.457059 0.661328 -0.594763
vn 0.596052 0.757232 -0.267060
vn 0.813255 0.235892 -0.531951
vn 0.448371 0.087091 -0.889595
vn 0.834710 0.306830 -0.457291
vn 0.181082 0.895476 -0.406611
vn -0.243882 -0.833739 -0.495380
vn 0.356880 -0.649594 -0.671315
vn -0.944985 0.238537 -0.223839
vn -0.754874 -0.529101 -0.387578
vn -0.243882 -0.833739 -0.495380
vn 0.181082 0.895476 -0.406611
vn -0.637343 -0.552617 -0.537037
vn -0.284543 -0.691368 -0.664113
vn -0.243882 -0.833739 -0.495380
vn -0.754874 -0.529101 -0.387578
vn 0.132565 -0.692449 -0.709184
vn 0.356880 -0.649594 -0.671315
vn -0.243882 -0.833739 -0.495380
vn -0.284543 -0.691368 -0.664113
vn -0.927819 -0.265176 -0.262361
vn -0.991578 0.024685 -0.127139
vn -0.980799 0.022434 -0.193726
vn -0.561635 -0.789291 -0.248167
vn -0.944985 0.238537 -0.223839
vn -0.537003 0.824760 -0.177195
vn -0.980799 0.022434 -0.193726
vn -0.991578 0.024685 -0.127139
vn -0.464025 0.817576 -0.340955
vn -0.790710 0.010022 -0.612109
vn -0.980799 0.022434 -0.193726
vn -0.537003 0.824760 -0.177195
vn -0.485007 -0.772414 -0.410055
vn -0.561635 -0.789291 -0.248167
vn -0.980799 0.022434 -0.193726
vn -0.790710 0.010022 -0.612109
vn -0.944985 0.238537 -0.223839
vn 0.181082 0.895476 -0.406611
vn 0.172622 0.973572 -0.149532
vn -0.537003 0.824760 -0.177195
vn 0.834710 0.306830 -0.457291
vn 0.548131 0.797706 -0.251431
vn 0.172622 0.973572 -0.149532
vn 0.181082 0.895476 -0.406611
vn 0.554202 0.743326 -0.374602
vn 0.169632 0.886929 -0.429630
vn 0.172622 0.973572 -0.149532
vn 0.548131 0.797706 -0.251431
vn -0.464025 0.817576 -0.340955
vn -0.537003 0.824760 -0.177195
vn 0.172622 0.973572 -0.149532
vn 0.169632 0.886929 -0.429630
vn 0.834710 0.306830 -0.457291
vn 0.913401 -0.151466 -0.377832
vn 0.908113 -0.104411 -0.405499
vn 0.548131 0.797706 -0.251431
vn 0.724965 -0.563222 -0.396493
vn 0.491595 -0.824950 -0.278911
vn 0.908113 -0.104411 -0.405499
vn 0.913401 -0.151466 -0.377832
vn 0.497838 -0.770742 -0.397636
vn 0.754592 -0.084115 -0.650781
vn 0.908113 -0.104411 -0.405499
vn 0.491595 -0.824950 -0.278911
vn 0.554202 0.743326 -0.374602
vn 0.548131 0.797706 -0.251431
vn 0.908113 -0.104411 -0.405499
vn 0.754592 -0.084115 -0.650781
vn 0.724965 -0.563222 -0.396493
vn 0.210198 -0.925534 -0.314965
vn 0.147194 -0.963600 -0.223181
vn 0.491595 -0.824950 -0.278911
vn -0.927819 -0.265176 -0.262361
vn -0.561635 -0.789291 -0.248167
vn 0.147194 -0.963600 -0.223181
vn 0.210198 -0.925534 -0.314965
vn -0.485007 -0.772414 -0.410055
vn 0.136389 -0.872136 -0.469869
vn 0.147194 -0.963600 -0.223181
vn -0.561635 -0.789291 -0.248167
vn 0.497838 -0.770742 -0.397636
vn 0.491595 -0.824950 -0.278911
vn 0.147194 -0.963600 -0.223181
vn 0.136389 -0.872136 -0.469869
vn -0.625580 -0.751786 0.208489
vn -0.971700 -0.222345 0.079765
vn -0.967551 -0.240685 -0.076921
vn -0.418318 -0.908134 0.017415
vn -0.927819 -0.265176 -0.262361
vn -0.695272 0.574641 -0.431724
vn -0.967551 -0.240685 -0.076921
vn -0.971700 -0.222345 0.079765
vn -0.356319 0.609046 -0.708590
vn -0.355281 -0.122953 -0.926638
vn -0.967551 -0.240685 -0.076921
vn -0.695272 0.574641 -0.431724
vn 0.026544 -0.763606 -0.645137
vn -0.418318 -0.908134 0.017415
vn -0.967551 -0.240685 -0.076921
vn -0.355281 -0.122953 -0.926638
vn -0.927819 -0.265176 -0.262361
vn 0.210198 -0.925534 -0.314965
vn 0.007141 0.711953 -0.702191
vn -0.695272 0.574641 -0.431724
vn 0.724965 -0.563222 -0.396493
vn 0.611274 -0.088214 -0.786487
vn 0.007141 0.711953 -0.702191
vn 0.210198 -0.925534 -0.314965
vn 0.457848 0.415710 -0.785850
vn 0.109262 0.630673 -0.768319
vn 0.007141 0.711953 -0.702191
vn 0.611274 -0.088214 -0.786487
vn -0.356319 0.609046 -0.708590
vn -0.695272 0.574641 -0.431724
vn 0.007141 0.711953 -0.702191
vn 0.109262 0.630673 -0.768319
vn 0.724965 -0.563222 -0.396493
vn 0.865743 -0.408579 -0.289053
vn 0.729731 -0.411522 -0.546024
vn 0.611274 -0.088214 -0.786487
vn 0.647393 -0.752298 -0.122186
vn 0.601982 -0.723021 -0.338909
vn 0.729731 -0.411522 -0.546024
vn 0.865743 -0.408579 -0.289053
vn 0.609861 -0.510789 -0.605941
vn 0.626922 -0.182536 -0.757396
vn 0.729731 -0.411522 -0.546024
vn 0.601982 -0.723021 -0.338909
vn 0.457848 0.415710 -0.785850
vn 0.611274 -0.088214 -0.786487
vn 0.729731 -0.411522 -0.546024
vn 0.626922 -0.182536 -0.757396
vn 0.647393 -0.752298 -0.122186
vn 0.131151 -0.989232 0.064950
vn 0.246419 -0.961797 -0.119269
vn 0.601982 -0.723021 -0.338909
vn -0.625580 -0.751786 0.208489
vn -0.418318 -0.908134 0.017415
vn 0.246419 -0.961797 -0.119269
vn 0.131151 -0.989232 0.064950
vn 0.026544 -0.763606 -0.645137
vn 0.461204 -0.647242 -0.606934
vn 0.246419 -0.961797 -0.119269
vn -0.418318 -0.908134 0.017415
vn 0.609861 -0.510789 -0.605941
vn 0.601982 -0.723021 -0.338909
vn 0.246419 -0.961797 -0.119269
vn 0.461204 -0.647242 -0.606934
s off
g polySurface85 polySurface84 polySurface82 polySurface80 polySurface78
usemtl lambert27SG
f 1/1/1 2/2/2 3/3/3 4/4/4
f 5/5/5 6/6/6 3/3/7 2/2/8
f 7/7/9 8/8/10 3/3/11 6/6/12
f 9/9/13 4/4/14 3/3/15 8/8/16
f 10/10/17 11/11/18 102/12/19 103/13/20
f 12/14/21 104/15/22 102/12/23 11/11/24
f 13/16/25 14/17/26 105/18/27 106/19/28
f 10/10/29 103/13/30 105/18/31 14/17/32
f 15/20/33 16/21/34 107/22/35 108/23/36
f 13/16/37 106/19/38 107/22/39 16/21/40
f 12/14/41 17/24/42 109/25/43 104/15/44
f 15/20/45 108/23/46 109/25/47 17/24/48
f 12/14/49 11/11/50 18/26/51 19/27/52
f 10/10/53 20/28/54 18/26/55 11/11/56
f 21/29/57 22/30/58 18/26/59 20/28/60
f 23/31/61 19/27/62 18/26/63 22/30/64
f 10/10/65 14/17/66 24/32/67 20/28/68
f 13/16/69 25/33/70 24/32/71 14/17/72
f 26/34/73 27/35/74 24/32/75 25/33/76
f 21/29/77 20/28/78 24/32/79 27/35/80
f 13/16/81 16/21/82 28/36/83 25/33/84
f 15/20/85 29/37/86 28/36/87 16/21/88
f 30/38/89 31/39/90 28/36/91 29/37/92
f 26/34/93 25/33/94 28/36/95 31/39/96
f 15/20/97 17/24/98 32/40/99 29/37/100
f 12/14/101 19/27/102 32/40/103 17/24/104
f 23/31/105 33/41/106 32/40/107 19/27/108
f 30/38/109 29/37/110 32/40/111 33/41/112
f 23/31/113 22/30/114 34/42/115 35/43/116
f 21/29/117 36/44/118 34/42/119 22/30/120
f 37/45/121 38/46/122 34/42/123 36/44/124
f 39/47/125 40/48/126 34/42/127 38/46/128
f 41/49/129 42/50/130 34/42/131 40/48/132
f 43/51/133 35/43/134 34/42/135 42/50/136
f 21/29/137 27/35/138 44/52/139 36/44/140
f 26/34/141 45/53/142 44/52/143 27/35/144
f 46/54/145 47/55/146 44/52/147 45/53/148
f 37/45/149 36/44/150 44/52/151 47/55/152
f 26/34/153 31/39/154 48/56/155 45/53/156
f 30/38/157 49/57/158 48/56/159 31/39/160
f 50/58/161 51/59/162 48/56/163 49/57/164
f 52/60/165 53/61/166 48/56/167 51/59/168
f 54/62/169 55/63/170 48/56/171 53/61/172
f 46/54/173 45/53/174 48/56/175 55/63/176
f 30/38/177 33/41/178 56/64/179 49/57/180
f 23/31/181 35/43/182 56/64/183 33/41/184
f 43/51/185 57/65/186 56/64/187 35/43/188
f 50/58/189 49/57/190 56/64/191 57/65/192
f 58/66/193 59/67/194 60/68/195 61/69/196
f 62/70/197 63/71/198 60/68/199 59/67/200
f 64/72/201 65/73/202 60/68/203 63/71/204
f 66/74/205 61/69/206 60/68/207 65/73/208
f 67/75/209 68/76/210 69/77/211 70/78/212
f 71/79/213 72/80/214 69/77/215 68/76/216
f 73/81/217 74/82/218 69/77/219 72/80/220
f 75/83/221 70/78/222 69/77/223 74/82/224
f 39/47/225 38/46/226 76/84/227 77/85/228
f 37/45/229 78/86/230 76/84/231 38/46/232
f 5/5/233 2/2/234 76/84/235 78/86/236
f 1/1/237 77/85/238 76/84/239 2/2/240
f 37/45/241 47/55/242 79/87/243 78/86/244
f 46/54/245 80/88/246 79/87/247 47/55/248
f 7/7/249 6/6/250 79/87/251 80/88/252
f 5/5/253 78/86/254 79/87/255 6/6/256
f 46/54/257 55/63/258 81/89/259 80/88/260
f 54/62/261 82/90/262 81/89/263 55/63/264
f 9/9/265 8/8/266 81/89/267 82/90/268
f 7/7/269 80/88/270 81/89/271 8/8/272
f 54/62/273 83/91/274 84/92/275 82/90/276
f 39/47/277 77/85/278 84/92/279 83/91/280
f 1/1/281 4/4/282 84/92/283 77/85/284
f 9/9/285 82/90/286 84/92/287 4/4/288
f 41/49/289 40/48/290 85/93/291 86/94/292
f 39/47/293 87/95/294 85/93/295 40/48/296
f 62/70/297 59/67/298 85/93/299 87/95/300
f 58/66/301 86/94/302 85/93/303 59/67/304
f 39/47/305 83/91/306 88/96/307 87/95/308
f 54/62/309 89/97/310 88/96/311 83/91/312
f 64/72/313 63/71/314 88/96/315 89/97/316
f 62/70/317 87/95/318 88/96/319 63/71/320
f 54/62/321 53/61/322 90/98/323 89/97/324
f 52/60/325 91/99/326 90/98/327 53/61/328
f 66/74/329 65/73/330 90/98/331 91/99/332
f 64/72/333 89/97/334 90/98/335 65/73/336
f 52/60/337 92/100/338 93/101/339 91/99/340
f 41/49/341 86/94/342 93/101/343 92/100/344
f 58/66/345 61/69/346 93/101/347 86/94/348
f 66/74/349 91/99/350 93/101/351 61/69/352
f 43/51/353 42/50/354 94/102/355 95/103/356
f 41/49/357 96/104/358 94/102/359 42/50/360
f 71/79/361 68/76/362 94/102/363 96/104/364
f 67/75/365 95/103/366 94/102/367 68/76/368
f 41/49/369 92/100/370 97/105/371 96/104/372
f 52/60/373 98/106/374 97/105/375 92/100/376
f 73/81/377 72/80/378 97/105/379 98/106/380
f 71/79/381 96/104/382 97/105/383 72/80/384
f 52/60/385 51/59/386 99/107/387 98/106/388
f 50/58/389 100/108/390 99/107/391 51/59/392
f 75/83/393 74/82/394 99/107/395 100/108/396
f 73/81/397 98/106/398 99/107/399 74/82/400
f 50/58/401 57/65/402 101/109/403 100/108/404
f 43/51/405 95/103/406 101/109/407 57/65/408
f 67/75/409 70/78/410 101/109/411 95/103/412
f 75/83/413 100/108/414 101/109/415 70/78/416
