# This file uses centimeters as units for non-parametric coordinates.

mtllib mine.mtl
g default
v 0.157157 -0.000000 -0.752639
v -0.657857 -0.000000 -0.487825
v -0.657857 -0.000000 0.369132
v 0.157157 -0.000000 0.633946
v 0.660864 -0.000000 -0.059346
v -0.327699 0.333897 -0.270733
v -0.344588 0.333897 0.200802
v 0.098649 0.333897 0.362577
v 0.389474 0.333897 -0.008976
v 0.125976 0.333897 -0.400382
v -0.078660 -0.000000 -0.059346
v -0.078660 0.230632 -0.059346
vt 0.548284 0.007647
vt 0.373591 0.064409
vt 0.373591 0.248091
vt 0.548284 0.304853
vt 0.656250 0.156250
vt 0.375000 0.312500
vt 0.425000 0.312500
vt 0.475000 0.312500
vt 0.525000 0.312500
vt 0.575000 0.312500
vt 0.625000 0.312500
vt 0.375000 0.688440
vt 0.425000 0.688440
vt 0.475000 0.688440
vt 0.525000 0.688440
vt 0.575000 0.688440
vt 0.625000 0.688440
vt 0.548284 0.695147
vt 0.373591 0.751909
vt 0.373591 0.935591
vt 0.548284 0.992353
vt 0.656250 0.843750
vt 0.500000 0.150000
vt 0.500000 0.837500
vn -0.436589 0.752397 -0.493244
vn -0.436589 0.752397 -0.493244
vn -0.436589 0.752397 -0.493244
vn -0.436589 0.752397 -0.493244
vn -0.628787 0.727862 0.273577
vn -0.628787 0.727862 0.273577
vn -0.628787 0.727862 0.273577
vn -0.628787 0.727862 0.273577
vn 0.074081 0.636754 0.767500
vn 0.074081 0.636754 0.767500
vn 0.074081 0.636754 0.767500
vn 0.074081 0.636754 0.767500
vn 0.776973 0.605564 0.172062
vn 0.776973 0.605564 0.172062
vn 0.776973 0.605564 0.172062
vn 0.776973 0.605564 0.172062
vn 0.366627 0.691218 -0.622738
vn 0.366627 0.691218 -0.622738
vn 0.366627 0.691218 -0.622738
vn 0.366627 0.691218 -0.622738
vn 0.000000 -1.000000 0.000000
vn 0.000000 -1.000000 -0.000000
vn 0.000000 -1.000000 0.000000
vn 0.000000 -1.000000 0.000000
vn 0.000000 -1.000000 0.000000
vn 0.000000 -1.000000 -0.000000
vn 0.232176 0.953484 0.192258
vn 0.201268 0.963466 -0.176705
vn 0.023389 0.999648 0.012532
vn -0.078635 0.975452 -0.205695
vn -0.213441 0.976775 -0.018815
vn -0.117383 0.967813 0.222618
s off
g pCylinder1
usemtl initialShadingGroup
f 1/6/1 2/7/2 7/13/3 6/12/4
f 2/7/5 3/8/6 8/14/7 7/13/8
f 3/8/9 4/9/10 9/15/11 8/14/12
f 4/9/13 5/10/14 10/16/15 9/15/16
f 5/10/17 1/11/18 6/17/19 10/16/20
s 1
f 2/2/21 1/1/22 11/23/23
f 3/3/24 2/2/21 11/23/23
f 4/4/25 3/3/24 11/23/23
f 5/5/26 4/4/25 11/23/23
f 1/1/22 5/5/26 11/23/23
s 2
f 6/21/27 7/20/28 12/24/29
f 7/20/28 8/19/30 12/24/29
f 8/19/30 9/18/31 12/24/29
f 9/18/31 10/22/32 12/24/29
f 10/22/32 6/21/27 12/24/29
